<?xml version="1.0" encoding="utf-8"?>
<!-- Generator: Adobe Illustrator 16.0.0, SVG Export Plug-In . SVG Version: 6.00 Build 0)  -->
<!DOCTYPE svg PUBLIC "-//W3C//DTD SVG 1.1//EN" "http://www.w3.org/Graphics/SVG/1.1/DTD/svg11.dtd">
<svg version="1.1" id="Layer_1" xmlns="http://www.w3.org/2000/svg" xmlns:xlink="http://www.w3.org/1999/xlink" x="0px" y="0px"
	 width="299.661px" height="62.73px" viewBox="0 -0.001 299.661 62.73" enable-background="new 0 -0.001 299.661 62.73"
	 xml:space="preserve">
<g>
	<path fill="#3B0365" d="M11.079,16.372c0.088-2.019-0.263-4.031,0.227-6.058c1.492-6.227,7.148-10.646,13.331-10.295
		c6.453,0.352,11.831,5.297,12.511,11.487c0.725,6.592-3.212,12.695-9.387,14.48c-1.105,0.322-2.239,0.534-3.359,0.805
		c-0.578-0.161-1.17-0.285-1.763-0.373c-3.658-0.329-6.512-2.107-8.86-4.829C12.454,20.066,11.883,18.157,11.079,16.372z"/>
	<path fill="#3B0365" d="M68.814,49.538h-5.399c0-1.931,0-3.775,0-5.633c0-3.19-0.066-6.373-0.058-9.563
		c0-5.817,3.716-9.329,9.936-9.46c2.795-0.059,5.473,0.344,7.895,2.034c2.597-1.814,5.546-1.982,8.531-1.873
		c5.224,0.176,8.604,2.824,8.992,7.997c0.417,5.502,0.095,11.056,0.095,16.792c-1.076,0-2.1,0.059-3.102,0
		c-2.035-0.146-2.963-1.141-2.978-3.19c-0.029-3.951,0-7.917,0-11.875c-0.029-3.739-3.314-5.634-6.673-3.907
		c-1.426,0.738-1.792,1.975-1.785,3.438c0,4.457,0,8.919,0,13.367v1.903h-6.322V38.285c0-1.434,0-2.86,0-4.287
		c-0.058-2.48-1.493-3.739-4.2-3.732c-2.714,0.015-4.178,1.251-4.2,3.761c-0.044,4.617,0,9.234-0.037,13.843
		c0,0.556,0.344,1.229-0.33,1.667l-0.176-0.233L68.814,49.538z"/>
	<path fill="#EB58E6" d="M261.556,41.446c0.644-2.758,1.273-5.523,1.902-8.29c0.424-1.814,0.863-3.628,1.259-5.451
		c0.366-1.661,1.492-2.393,3.058-2.509c1.244-0.095,2.517-0.022,3.995-0.022c-2.283,8.217-4.537,16.287-6.79,24.423H258.6
		l-3.541-16.543h-0.438c-1.215,5.473-2.43,10.939-3.688,16.529h-6.438c-2.195-7.976-4.39-15.986-6.658-24.204h6.161
		c1.229,5.327,2.488,10.741,3.746,16.156h0.38c1.112-5.378,2.239-10.755,3.381-16.221h6.453c1.068,5.393,2.136,10.785,3.19,16.177
		L261.556,41.446z"/>
	<path fill="#3B0365" d="M57.949,28.027c-1.075,0-2.063-0.029-3.051,0c-1.193,0.124-2.327-0.512-2.854-1.588
		c-1.639-3.146-6.402-3.351-8.802-2.231c-2.407,1.119-2.634,4.039-0.461,5.583c1.719,1.207,3.753,1.492,5.699,2.056
		c1.836,0.541,3.688,1.061,5.532,1.603c3.153,0.937,5.18,2.919,5.399,6.3c0.234,3.497-0.666,6.555-3.82,8.561
		c-2.707,1.727-5.809,1.917-8.911,1.873c-1.595,0-3.183-0.205-4.727-0.6c-4.515-1.243-6.951-4.346-7.031-9.263h5.787
		c1.521,4.434,6.695,6.292,10.858,3.892c1.222-0.702,1.697-1.785,1.624-3.175c-0.081-1.507-1.04-2.29-2.305-2.678
		c-2.407-0.754-4.852-1.397-7.288-2.056c-1.551-0.388-3.037-0.995-4.405-1.807c-2.465-1.522-3.995-3.622-3.878-6.622
		c0.125-3.432,1.215-6.498,4.588-7.96c4.536-1.976,9.182-1.917,13.755,0.051C56.046,21.003,58.373,24.662,57.949,28.027z"/>
	<path fill="#3B0365" d="M171.415,49.567h-5.853c-0.352-1.258-0.497-26.252-0.176-31.19c1.258-0.286,2.561-0.307,3.833-0.059
		c1.581,0.293,2.195,1.5,2.195,3.044c0,2.275,0,4.558,0,7.177c1.873-1.733,3.571-3.153,5.824-3.423
		c6.322-0.776,10.302,1.888,10.594,8.341c0.235,5.312,0.045,10.638,0.045,16.111h-5.897c-0.395-0.571-0.205-1.2-0.205-1.771
		c-0.029-4.009,0.029-8.034-0.073-12.036c-0.059-2.268-0.937-4.207-3.234-5.107c-1.902-0.709-4.053-0.212-5.458,1.267
		c-1.258,1.44-1.609,3.211-1.624,5.063c0,3.628,0,7.258,0.029,10.887V49.567L171.415,49.567z"/>
	<path fill="#3B0365" d="M149.648,37.721c0.081,1.544-0.051,3.066-0.387,4.574c-1.222,4.829-3.783,7.185-8.736,7.887
		c-5.297,0.747-9.688-1.024-11.502-5.092c-2.203-4.756-2.209-10.244-0.022-15.021c1.712-3.892,5.861-5.685,10.851-5.18
		c6.088,0.622,9.505,4.214,9.812,10.36C149.685,36.083,149.648,36.909,149.648,37.721z M143.356,37.583
		c0.103-1.5-0.103-3-0.615-4.413c-0.673-1.843-2.019-2.838-3.958-2.912c-1.945-0.073-3.512,0.703-4.236,2.517
		c-1.266,3.073-1.25,6.519,0.037,9.591c0.717,1.771,2.268,2.503,4.112,2.458c1.77,0.015,3.351-1.111,3.914-2.78
		c0.578-1.405,0.834-2.927,0.747-4.448V37.583L143.356,37.583z"/>
	<path fill="#EB58E6" d="M236.153,37.685c0.029,1.595-0.147,3.19-0.527,4.741c-1.522,6.175-6,8.371-12.116,7.799
		c-5.825-0.541-8.927-3.965-9.468-9.789c-0.205-1.91-0.205-3.834,0-5.751c0.893-7.405,5.37-10.243,11.956-9.746
		C232.992,25.466,236.138,29.578,236.153,37.685z M229.802,37.429c-0.059-1.551-0.147-3.073-0.762-4.529
		c-0.804-1.837-2.194-2.642-4.155-2.635c-1.961,0.008-3.424,0.966-4.068,2.773c-1.098,2.963-1.069,6.227,0.087,9.153
		c0.703,1.83,2.166,2.619,3.98,2.634c1.785,0.117,3.424-0.936,4.054-2.576C229.612,40.7,229.714,39.061,229.802,37.429z"/>
	<path fill="#3B0365" d="M102.515,38.036c-0.22-2.846,0.103-5.297,1.134-7.587c1.837-4.09,5.956-6.102,11.136-5.531
		c5.568,0.614,8.29,2.963,9.431,8.473c0.805,3.563,0.585,7.28-0.636,10.733c-0.885,2.648-3.007,4.712-5.692,5.516
		c-2.634,0.864-5.458,0.937-8.136,0.22c-4.214-1.083-6.871-4.594-7.236-9.365C102.456,39.558,102.515,38.629,102.515,38.036z
		 M118.267,37.524c0.095-1.434-0.102-2.875-0.578-4.229c-0.724-2.034-2.137-3.021-4.221-3.029c-2.093-0.007-3.578,1.01-4.266,3
		c-0.899,2.677-0.929,5.561-0.087,8.252c0.658,2.225,2.239,3.352,4.346,3.337c2.107-0.015,3.593-1.229,4.266-3.453
		C118.135,40.144,118.318,38.841,118.267,37.524z"/>
	<path fill="#EB58E6" d="M11.079,16.372c0.819,1.786,1.39,3.695,2.714,5.217c2.327,2.715,5.202,4.5,8.86,4.829
		c0.592,0.088,1.185,0.212,1.763,0.373c-2.758,2.144-4.792,5.1-5.816,8.451c-0.922,1.068-1.596,2.319-2.736,3.234
		c-2.846,2.253-5.963,2.048-9.175,1.141c-3.659-1.521-6.015-4.06-6.592-8.114c-0.556-3.79,1.339-7.99,4.793-9.863
		C7.325,20.374,9.44,18.574,11.079,16.372z"/>
	<path fill="#3B0365" d="M152.809,18.215c1.982,0.19,4.023-0.695,5.436,1.266c1.201,1.661,0.425,3.644,0.82,5.516
		c1.024,0.411,2.166,0,3.19,0.242c0.731,2.642-0.029,3.747-3.161,4.587V44.08c0.995,1.039,2.224,0.6,3.336,0.937
		c0.176,1.478,0.176,2.97,0,4.433c-2.165,0.175-4.331,0.175-6.468-0.028c-1.712-0.205-2.787-1.23-3.065-2.971
		c-0.109-0.542-0.168-1.083-0.198-1.625c0-8.575,0-17.15,0-25.725C152.707,18.889,152.758,18.677,152.809,18.215z"/>
	<path fill="#EB58E6" d="M198.487,49.625h-6.043c-0.336-0.585-0.22-1.083-0.22-1.55c0-7.815,0-15.614,0-23.421
		c0-4.155,2.093-6.329,6.233-6.431c1.171-0.036,2.415-0.263,3.629,0.314v4.69c-3.951,0.776-4.097,0.937-3.688,3.578
		c1.141,0.439,2.385-0.081,3.526,0.3c0.644,2.604-0.278,3.856-3.438,4.471V49.625L198.487,49.625z"/>
	<path fill="#EB58E6" d="M204.545,18.208c1.17,0,2.195-0.073,3.219,0.022c1.785,0.154,2.854,1.661,2.854,3.98
		c0,6.651,0,13.309,0,19.952v7.375h-6.072V18.208z"/>
	<path fill="#3B0365" d="M6.674,39.617c3.212,0.907,6.329,1.112,9.175-1.142c1.134-0.908,1.814-2.166,2.736-3.233
		c0.212,2.245,1.09,4.375,2.531,6.13c3.951,4.99,1.112,9.688-3.168,11.619l-1.054,0.468c-5.48-0.132-7.982-2.151-8.619-6.965
		C8.605,44.08,8.035,41.636,6.674,39.617z"/>
	<path fill="#EB58E6" d="M8.284,46.494c0.629,4.815,3.139,6.834,8.619,6.966c-1.646,1.375-2.671,3.161-3.439,5.136
		c-1.163,2.985-2.956,4.244-5.809,4.126c-2.781-0.102-5.188-1.945-6.029-4.58c-0.842-2.663,0.205-5.561,2.545-7.083
		C5.957,49.889,7.457,48.514,8.284,46.494z"/>
	<path fill="#878787" d="M272.59,41.636h2.488c1.141,0,1.96,0.146,2.458,0.468c0.526,0.352,0.833,0.937,0.79,1.551
		c0,0.41-0.117,0.819-0.351,1.17c-0.205,0.293-0.526,0.498-0.878,0.557v0.059c0.424,0.059,0.819,0.292,1.083,0.629
		c0.249,0.366,0.366,0.805,0.352,1.244c0.028,0.659-0.264,1.288-0.792,1.697c-0.614,0.439-1.375,0.659-2.136,0.615h-3.014
		L272.59,41.636L272.59,41.636z M274.287,44.797h0.996c0.351,0.029,0.688-0.043,0.995-0.205c0.22-0.175,0.336-0.439,0.308-0.716
		c0.015-0.264-0.103-0.513-0.337-0.659c-0.322-0.146-0.702-0.234-1.053-0.204h-0.908V44.797z M274.287,46.143v2.093h1.112
		c0.366,0.029,0.732-0.073,1.04-0.263c0.234-0.22,0.366-0.512,0.335-0.834c0-0.658-0.482-0.995-1.434-0.995H274.287z"/>
	<path fill="#878787" d="M284.764,49.64h-4.624v-8.004h4.624v1.375h-2.927v1.756h2.723v1.405h-2.723v2.063h2.927V49.64
		L284.764,49.64z"/>
	<path fill="#878787" d="M289.506,49.64h-1.698v-6.599h-2.166v-1.405h6.058v1.405h-2.194V49.64z"/>
	<path fill="#878787" d="M297.818,49.64l-0.572-1.917h-2.911l-0.585,1.917h-1.844l2.839-8.048h2.078l2.839,8.048H297.818z
		 M296.852,46.304c-0.556-1.727-0.849-2.707-0.907-2.926c-0.073-0.22-0.117-0.396-0.146-0.542c-0.131,0.468-0.469,1.624-1.054,3.468
		L296.852,46.304L296.852,46.304z"/>
</g>
</svg>
